<?xml version="1.0" encoding="UTF-8" standalone="no"?>
<svg
   width="471.41pt"
   height="271.29999pt"
   viewBox="0 0 471.41 271.29999"
   version="1.1"
   id="svg59"
   sodipodi:docname="AKH Logo only.svg"
   inkscape:version="1.1.1 (3bf5ae0d25, 2021-09-20)"
   xmlns:inkscape="http://www.inkscape.org/namespaces/inkscape"
   xmlns:sodipodi="http://sodipodi.sourceforge.net/DTD/sodipodi-0.dtd"
   xmlns="http://www.w3.org/2000/svg"
   xmlns:svg="http://www.w3.org/2000/svg">
  <defs
     id="defs63" />
  <sodipodi:namedview
     id="namedview61"
     pagecolor="#ffffff"
     bordercolor="#666666"
     borderopacity="1.0"
     inkscape:pageshadow="2"
     inkscape:pageopacity="0.0"
     inkscape:pagecheckerboard="0"
     inkscape:document-units="pt"
     showgrid="false"
     inkscape:zoom="0.77667494"
     inkscape:cx="35.407348"
     inkscape:cy="160.29872"
     inkscape:window-width="1920"
     inkscape:window-height="991"
     inkscape:window-x="-9"
     inkscape:window-y="-9"
     inkscape:window-maximized="1"
     inkscape:current-layer="svg59" />
  <g
     id="#ffffffff"
     transform="translate(-577.86,-39.55)" />
  <path
     fill="#1b4e9c"
     opacity="1"
     d="m 99.11,0.09 c 16.8,-0.08 33.59,0.1 50.39,-0.09 14.4,37.57 28.27,75.37 42.5,113.02 1.88,4.99 3.76,9.99 5.65,14.98 14.37,37.69 28.25,75.61 44.54,112.54 4.55,10.3 9.27,20.51 13.92,30.76 -12.84,-0.12 -25.68,0.11 -38.51,-0.12 -17.98,-44.29 -35.29,-88.84 -52.78,-133.32 -2.3,-5.91 -4.63,-11.8 -6.94,-17.7 -11.09,-28.29 -22.14,-56.6 -33.2,-84.91 -13.2,39.96 -26.92,79.74 -40.09,119.71 -28.67,20.58 -51.86,48.25 -68.52,79.27 3.62,-10.41 8.1,-20.54 11.92,-30.9 C 53.59,136.26 76.83,68.32 99.11,0.09 Z"
     id="path3" />
  <path
     fill="#1b4e9c"
     opacity="1"
     d="m 275.51,112.6 c 0.03,-37.23 -0.05,-74.46 0.04,-111.69 12.21,0.06 24.42,0.02 36.64,0.02 0,39.96 0,79.92 -0.01,119.88 -0.01,7.76 0,15.52 0,23.28 -0.09,41.99 0.21,83.99 -0.15,125.97 -12.17,-0.18 -24.35,-0.02 -36.52,-0.08 0,-46.53 0.01,-93.06 0,-139.59 -0.01,-5.93 -0.01,-11.86 0,-17.79 z"
     id="path5" />
  <path
     fill="#1b4e9c"
     opacity="1"
     d="m 411.62,3.84 c 13.28,-0.09 26.56,-0.02 39.84,-0.03 -29.31,46.15 -58.98,92.08 -88.48,138.12 -10.04,-5.58 -20.55,-10.25 -31.19,-14.54 l -0.53,-0.3 C 358.24,86.14 384.84,44.93 411.62,3.84 Z"
     id="path7" />
  <g
     id="#f9b10aff"
     transform="translate(-577.86,-39.55)">
    <path
       fill="#f9b10a"
       opacity="1"
       d="m 769.86,152.57 c 27.63,-3.82 55.89,-4.84 83.51,-0.42 -0.01,5.93 -0.01,11.86 0,17.79 -19.3,-4.84 -39.42,-7.5 -59.28,-5.22 -6.25,0.59 -12.43,1.63 -18.58,2.83 -1.89,-4.99 -3.77,-9.99 -5.65,-14.98 z"
       id="path52" />
    <path
       fill="#f9b10a"
       opacity="1"
       d="m 662.45,194.51 c 22.08,-15.89 47.11,-27.52 73.29,-34.8 2.31,5.9 4.64,11.79 6.94,17.7 -29.85,11.96 -56.4,31.64 -77.08,56.21 -19.29,22.67 -33.65,49.16 -44.42,76.82 -14.44,-0.12 -28.88,0.09 -43.32,-0.11 4.96,-12.35 10.02,-24.68 16.07,-36.55 16.66,-31.02 39.85,-58.69 68.52,-79.27 z"
       id="path54" />
    <path
       fill="#f9b10a"
       opacity="1"
       d="m 890.04,160.36 c 6.62,1.93 13.12,4.25 19.61,6.58 10.64,4.29 21.15,8.96 31.19,14.54 25.81,14.12 48.92,33.22 67.47,56.08 17.74,21.68 31.26,46.63 40.96,72.87 -15.14,-0.05 -30.28,-0.01 -45.42,-0.02 -11.37,-27.14 -27.48,-52.23 -46.83,-74.36 -18.84,-21.39 -41.39,-39.71 -66.98,-52.41 0,-7.76 -0.01,-15.52 0,-23.28 z"
       id="path56" />
  </g>
</svg>
