<svg id="Layer_1" data-name="Layer 1" xmlns="http://www.w3.org/2000/svg" viewBox="0 0 1010.81 325.84"><title>ALHASHIM</title><path d="M216.61,448.38H177.22V300.57h39.39v16.88H199.06V431.5h17.55Z" transform="translate(-166 -164.66)"/><path d="M342.17,421H312.61L304,394.21H261.21L252.73,421h-29.4l43.84-120.43h32.17Zm-44.34-47.62L284.89,332.9a52.67,52.67,0,0,1-2-10.83h-.67a47,47,0,0,1-2.1,10.49L267,373.38Z" transform="translate(-166 -164.66)"/><path d="M428.93,421H357.2V300.57h27.13V399h44.6Z" transform="translate(-166 -164.66)"/><path d="M549.36,421H522.15V372H472.26V421H445.13V300.57h27.13v48h49.89v-48h27.21Z" transform="translate(-166 -164.66)"/><path d="M682.81,421H653.25l-8.57-26.79H601.85L593.37,421H564l43.84-120.43H640Zm-44.34-47.62L625.53,332.9a52.67,52.67,0,0,1-2-10.83h-.67a46.47,46.47,0,0,1-2.1,10.49l-13.11,40.82Z" transform="translate(-166 -164.66)"/><path d="M898.48,421H871.27V372H821.38V421H794.26V300.57h27.12v48h49.89v-48h27.21Z" transform="translate(-166 -164.66)"/><path d="M963.23,300.57v21H953.16V400h10.07v21H916V400H926V321.56H916v-21Z" transform="translate(-166 -164.66)"/><path d="M1117.77,421H1091V348.94q0-11.67,1-25.78h-.67a127.07,127.07,0,0,1-3.78,16L1059.31,421h-22.17l-28.72-81q-1.18-3.29-3.78-16.8h-.76Q1005,341,1005,354.4V421H980.54V300.57h39.72L1044.87,372a100.79,100.79,0,0,1,4.28,17.22h.5a175,175,0,0,1,4.79-17.38l24.61-71.22h38.72Z" transform="translate(-166 -164.66)"/><path d="M1176.81,448.38h-39.56V431.5H1155v-114h-17.72V300.57h39.56Z" transform="translate(-166 -164.66)"/><path d="M1167,249c-4.55,17.85-351.93-98.54-411-5-30.75,48.7,45.74,108.22,22,168-57.85,145.67-612,44-612,44s472,73,553-25c46.2-55.89-132.77-144.22-106-214,37.24-97.07,375-38.76,518,12C1131,229,1168.69,242.37,1167,249Z" transform="translate(-166 -164.66)"/></svg>